<?xml version="1.0" encoding="UTF-8" standalone="no"?>
<svg
   xmlns:ns2="http://www.iki.fi/pav/software/textext/"
   xmlns:dc="http://purl.org/dc/elements/1.1/"
   xmlns:cc="http://creativecommons.org/ns#"
   xmlns:rdf="http://www.w3.org/1999/02/22-rdf-syntax-ns#"
   xmlns:svg="http://www.w3.org/2000/svg"
   xmlns="http://www.w3.org/2000/svg"
   xmlns:sodipodi="http://sodipodi.sourceforge.net/DTD/sodipodi-0.dtd"
   xmlns:inkscape="http://www.inkscape.org/namespaces/inkscape"
   width="138.07425mm"
   height="79.067467mm"
   viewBox="0 0 138.07425 79.067467"
   version="1.1"
   id="svg2706"
   sodipodi:docname="kernel_density_estimation.svg"
   inkscape:version="1.0.2 (1.0.2+r75+1)">
  <defs
     id="defs2700">
    <g
       id="id-a80bd0e2-242a-4d06-a506-e092c502bdf0-7">
      <symbol
         overflow="visible"
         id="id-2b26c666-74c1-42c8-83c9-05dc4eef5c6d-5">
        <path
           style="stroke:none"
           d=""
           id="id-04790336-04f6-4b86-9f5a-104e974c46a5-3" />
      </symbol>
      <symbol
         overflow="visible"
         id="id-4f73513f-3088-4c90-8a0f-63743bcfa0ff-5">
        <path
           style="stroke:none"
           d="M 3.328125,-3.015625 C 3.390625,-3.265625 3.625,-4.1875 4.3125,-4.1875 c 0.046875,0 0.296875,0 0.5,0.125 C 4.53125,-4 4.34375,-3.765625 4.34375,-3.515625 c 0,0.15625 0.109375,0.34375 0.375,0.34375 0.21875,0 0.53125,-0.171875 0.53125,-0.578125 0,-0.515625 -0.578125,-0.65625 -0.921875,-0.65625 -0.578125,0 -0.921875,0.53125 -1.046875,0.75 -0.25,-0.65625 -0.78125,-0.75 -1.078125,-0.75 -1.03125,0 -1.609375,1.28125 -1.609375,1.53125 0,0.109375 0.109375,0.109375 0.125,0.109375 0.078125,0 0.109375,-0.03125 0.125,-0.109375 0.34375,-1.0625 1,-1.3125 1.34375,-1.3125 0.1875,0 0.53125,0.09375 0.53125,0.671875 0,0.3125 -0.171875,0.96875 -0.53125,2.375 -0.15625,0.609375 -0.515625,1.03125 -0.953125,1.03125 -0.0625,0 -0.28125,0 -0.5,-0.125 0.25,-0.0625 0.46875,-0.265625 0.46875,-0.546875 0,-0.265625 -0.21875,-0.34375 -0.359375,-0.34375 -0.3125,0 -0.546875,0.25 -0.546875,0.578125 0,0.453125 0.484375,0.65625 0.921875,0.65625 0.671875,0 1.03125,-0.703125 1.046875,-0.75 0.125,0.359375 0.484375,0.75 1.078125,0.75 1.03125,0 1.59375,-1.28125 1.59375,-1.53125 0,-0.109375 -0.078125,-0.109375 -0.109375,-0.109375 -0.09375,0 -0.109375,0.046875 -0.140625,0.109375 -0.328125,1.078125 -1,1.3125 -1.3125,1.3125 -0.390625,0 -0.546875,-0.3125 -0.546875,-0.65625 0,-0.21875 0.046875,-0.4375 0.15625,-0.875 z m 0,0"
           id="id-1d5b807c-90e3-4226-956d-9fc406d5dc89-6" />
      </symbol>
      <symbol
         overflow="visible"
         id="id-c50bfa9b-0838-4c02-8bf0-8aaf33198604-2">
        <path
           style="stroke:none"
           d=""
           id="id-7ceb9893-2014-40fc-b596-b184f4fd99de-9" />
      </symbol>
      <symbol
         overflow="visible"
         id="id-2ba61925-4f6c-4a75-a334-a999f1a9f813-1">
        <path
           style="stroke:none"
           d="m 2.328125,-4.4375 c 0,-0.1875 0,-0.1875 -0.203125,-0.1875 -0.453125,0.4375 -1.078125,0.4375 -1.359375,0.4375 v 0.25 c 0.15625,0 0.625,0 1,-0.1875 v 3.546875 c 0,0.234375 0,0.328125 -0.6875,0.328125 H 0.8125 V 0 c 0.125,0 0.984375,-0.03125 1.234375,-0.03125 0.21875,0 1.09375,0.03125 1.25,0.03125 V -0.25 H 3.03125 c -0.703125,0 -0.703125,-0.09375 -0.703125,-0.328125 z m 0,0"
           id="id-4bb0d6cb-9170-44a9-9676-34930e0fa374-2" />
      </symbol>
    </g>
    <g
       id="id-5b3fb1cc-715d-4844-ab29-b3bd95221af9-1">
      <symbol
         overflow="visible"
         id="id-1b74fc4c-2452-4a01-abcf-1021759ab6a9-8">
        <path
           style="stroke:none"
           d=""
           id="id-eb65b70c-7388-4514-830d-7b651f9793cd-7" />
      </symbol>
      <symbol
         overflow="visible"
         id="id-c1025ed0-6ae0-4a6f-aef6-5d894ef02f29-9">
        <path
           style="stroke:none"
           d="M 3.328125,-3.015625 C 3.390625,-3.265625 3.625,-4.1875 4.3125,-4.1875 c 0.046875,0 0.296875,0 0.5,0.125 C 4.53125,-4 4.34375,-3.765625 4.34375,-3.515625 c 0,0.15625 0.109375,0.34375 0.375,0.34375 0.21875,0 0.53125,-0.171875 0.53125,-0.578125 0,-0.515625 -0.578125,-0.65625 -0.921875,-0.65625 -0.578125,0 -0.921875,0.53125 -1.046875,0.75 -0.25,-0.65625 -0.78125,-0.75 -1.078125,-0.75 -1.03125,0 -1.609375,1.28125 -1.609375,1.53125 0,0.109375 0.109375,0.109375 0.125,0.109375 0.078125,0 0.109375,-0.03125 0.125,-0.109375 0.34375,-1.0625 1,-1.3125 1.34375,-1.3125 0.1875,0 0.53125,0.09375 0.53125,0.671875 0,0.3125 -0.171875,0.96875 -0.53125,2.375 -0.15625,0.609375 -0.515625,1.03125 -0.953125,1.03125 -0.0625,0 -0.28125,0 -0.5,-0.125 0.25,-0.0625 0.46875,-0.265625 0.46875,-0.546875 0,-0.265625 -0.21875,-0.34375 -0.359375,-0.34375 -0.3125,0 -0.546875,0.25 -0.546875,0.578125 0,0.453125 0.484375,0.65625 0.921875,0.65625 0.671875,0 1.03125,-0.703125 1.046875,-0.75 0.125,0.359375 0.484375,0.75 1.078125,0.75 1.03125,0 1.59375,-1.28125 1.59375,-1.53125 0,-0.109375 -0.078125,-0.109375 -0.109375,-0.109375 -0.09375,0 -0.109375,0.046875 -0.140625,0.109375 -0.328125,1.078125 -1,1.3125 -1.3125,1.3125 -0.390625,0 -0.546875,-0.3125 -0.546875,-0.65625 0,-0.21875 0.046875,-0.4375 0.15625,-0.875 z m 0,0"
           id="id-0287d2bc-c72e-4c26-b13f-eaef5bc72e9c-2" />
      </symbol>
      <symbol
         overflow="visible"
         id="id-16fabd91-4d2e-4233-9b0e-a55d9f4d5159-0">
        <path
           style="stroke:none"
           d=""
           id="id-82881600-9f2d-40f6-97e4-57ad98f32ce1-2" />
      </symbol>
      <symbol
         overflow="visible"
         id="id-38a5842b-1a4e-4e99-8c7a-35410000b39e-3">
        <path
           style="stroke:none"
           d="M 3.515625,-1.265625 H 3.28125 c -0.015625,0.15625 -0.09375,0.5625 -0.1875,0.625 C 3.046875,-0.59375 2.515625,-0.59375 2.40625,-0.59375 H 1.125 c 0.734375,-0.640625 0.984375,-0.84375 1.390625,-1.171875 0.515625,-0.40625 1,-0.84375 1,-1.5 0,-0.84375 -0.734375,-1.359375 -1.625,-1.359375 -0.859375,0 -1.453125,0.609375 -1.453125,1.25 0,0.34375 0.296875,0.390625 0.375,0.390625 0.15625,0 0.359375,-0.125 0.359375,-0.375 0,-0.125 -0.046875,-0.375 -0.40625,-0.375 C 0.984375,-4.21875 1.453125,-4.375 1.78125,-4.375 c 0.703125,0 1.0625,0.546875 1.0625,1.109375 0,0.609375 -0.4375,1.078125 -0.65625,1.328125 L 0.515625,-0.265625 C 0.4375,-0.203125 0.4375,-0.1875 0.4375,0 h 2.875 z m 0,0"
           id="id-71f224ae-edd0-4d3c-adc3-3074e850f52e-7" />
      </symbol>
    </g>
    <g
       id="id-a80bd0e2-242a-4d06-a506-e092c502bdf0-75">
      <symbol
         overflow="visible"
         id="id-2b26c666-74c1-42c8-83c9-05dc4eef5c6d-3">
        <path
           style="stroke:none"
           d=""
           id="id-04790336-04f6-4b86-9f5a-104e974c46a5-5" />
      </symbol>
      <symbol
         overflow="visible"
         id="id-4f73513f-3088-4c90-8a0f-63743bcfa0ff-6">
        <path
           style="stroke:none"
           d="M 3.328125,-3.015625 C 3.390625,-3.265625 3.625,-4.1875 4.3125,-4.1875 c 0.046875,0 0.296875,0 0.5,0.125 C 4.53125,-4 4.34375,-3.765625 4.34375,-3.515625 c 0,0.15625 0.109375,0.34375 0.375,0.34375 0.21875,0 0.53125,-0.171875 0.53125,-0.578125 0,-0.515625 -0.578125,-0.65625 -0.921875,-0.65625 -0.578125,0 -0.921875,0.53125 -1.046875,0.75 -0.25,-0.65625 -0.78125,-0.75 -1.078125,-0.75 -1.03125,0 -1.609375,1.28125 -1.609375,1.53125 0,0.109375 0.109375,0.109375 0.125,0.109375 0.078125,0 0.109375,-0.03125 0.125,-0.109375 0.34375,-1.0625 1,-1.3125 1.34375,-1.3125 0.1875,0 0.53125,0.09375 0.53125,0.671875 0,0.3125 -0.171875,0.96875 -0.53125,2.375 -0.15625,0.609375 -0.515625,1.03125 -0.953125,1.03125 -0.0625,0 -0.28125,0 -0.5,-0.125 0.25,-0.0625 0.46875,-0.265625 0.46875,-0.546875 0,-0.265625 -0.21875,-0.34375 -0.359375,-0.34375 -0.3125,0 -0.546875,0.25 -0.546875,0.578125 0,0.453125 0.484375,0.65625 0.921875,0.65625 0.671875,0 1.03125,-0.703125 1.046875,-0.75 0.125,0.359375 0.484375,0.75 1.078125,0.75 1.03125,0 1.59375,-1.28125 1.59375,-1.53125 0,-0.109375 -0.078125,-0.109375 -0.109375,-0.109375 -0.09375,0 -0.109375,0.046875 -0.140625,0.109375 -0.328125,1.078125 -1,1.3125 -1.3125,1.3125 -0.390625,0 -0.546875,-0.3125 -0.546875,-0.65625 0,-0.21875 0.046875,-0.4375 0.15625,-0.875 z m 0,0"
           id="id-1d5b807c-90e3-4226-956d-9fc406d5dc89-2" />
      </symbol>
      <symbol
         overflow="visible"
         id="id-c50bfa9b-0838-4c02-8bf0-8aaf33198604-9">
        <path
           style="stroke:none"
           d=""
           id="id-7ceb9893-2014-40fc-b596-b184f4fd99de-1" />
      </symbol>
      <symbol
         overflow="visible"
         id="id-2ba61925-4f6c-4a75-a334-a999f1a9f813-2">
        <path
           style="stroke:none"
           d="m 2.328125,-4.4375 c 0,-0.1875 0,-0.1875 -0.203125,-0.1875 -0.453125,0.4375 -1.078125,0.4375 -1.359375,0.4375 v 0.25 c 0.15625,0 0.625,0 1,-0.1875 v 3.546875 c 0,0.234375 0,0.328125 -0.6875,0.328125 H 0.8125 V 0 c 0.125,0 0.984375,-0.03125 1.234375,-0.03125 0.21875,0 1.09375,0.03125 1.25,0.03125 V -0.25 H 3.03125 c -0.703125,0 -0.703125,-0.09375 -0.703125,-0.328125 z m 0,0"
           id="id-4bb0d6cb-9170-44a9-9676-34930e0fa374-7" />
      </symbol>
    </g>
  </defs>
  <sodipodi:namedview
     id="base"
     pagecolor="#ffffff"
     bordercolor="#666666"
     borderopacity="1.0"
     inkscape:pageopacity="0.0"
     inkscape:pageshadow="2"
     inkscape:zoom="1.4"
     inkscape:cx="284.53162"
     inkscape:cy="206.22979"
     inkscape:document-units="mm"
     inkscape:current-layer="layer1"
     inkscape:document-rotation="0"
     showgrid="false"
     inkscape:window-width="1920"
     inkscape:window-height="1016"
     inkscape:window-x="0"
     inkscape:window-y="27"
     inkscape:window-maximized="1" />
  <metadata
     id="metadata2703">
    <rdf:RDF>
      <cc:Work
         rdf:about="">
        <dc:format>image/svg+xml</dc:format>
        <dc:type
           rdf:resource="http://purl.org/dc/dcmitype/StillImage" />
        <dc:title />
      </cc:Work>
    </rdf:RDF>
  </metadata>
  <g
     inkscape:label="Layer 1"
     inkscape:groupmode="layer"
     id="layer1"
     transform="translate(-33.707473,-33.132506)">
    <text
       xml:space="preserve"
       style="font-style:normal;font-weight:normal;font-size:3.83648px;line-height:1.25;font-family:sans-serif;letter-spacing:0px;word-spacing:0px;fill:#000000;fill-opacity:1;stroke:none;stroke-width:0.0959121"
       x="124.80981"
       y="37.969078"
       id="text3271"><tspan
         sodipodi:role="line"
         id="tspan3269"
         x="124.80981"
         y="37.969078"
         style="stroke-width:0.0959121">observations</tspan></text>
    <text
       xml:space="preserve"
       style="font-style:normal;font-weight:normal;font-size:3.83648px;line-height:1.25;font-family:sans-serif;letter-spacing:0px;word-spacing:0px;fill:#000000;fill-opacity:1;stroke:none;stroke-width:0.0959121"
       x="137.39343"
       y="76.36573"
       id="text3275"><tspan
         sodipodi:role="line"
         id="tspan3273"
         x="137.39343"
         y="76.36573"
         style="stroke-width:0.0959121">estimate of the </tspan><tspan
         sodipodi:role="line"
         x="137.39343"
         y="81.161331"
         style="stroke-width:0.0959121"
         id="tspan3277">density at point </tspan></text>
    <g
       transform="matrix(0.457691,0,0,0.457691,154.05858,107.2152)"
       ns2:version="1.0.1"
       ns2:texconverter="pdflatex"
       ns2:pdfconverter="inkscape"
       ns2:text="$x_1$"
       ns2:preamble="/home/macaco/.config/inkscape/extensions/textext/default_packages.tex"
       ns2:scale="1.29739074514478"
       ns2:alignment="middle center"
       ns2:jacobian_sqrt="0.457691"
       id="g3306">
      <defs
         id="id-08c11b2a-3447-47ca-bb30-eb4f65e83df9">
        <g
           id="id-a80bd0e2-242a-4d06-a506-e092c502bdf0">
          <symbol
             overflow="visible"
             id="id-2b26c666-74c1-42c8-83c9-05dc4eef5c6d">
            <path
               style="stroke:none"
               d=""
               id="id-04790336-04f6-4b86-9f5a-104e974c46a5" />
          </symbol>
          <symbol
             overflow="visible"
             id="id-4f73513f-3088-4c90-8a0f-63743bcfa0ff">
            <path
               style="stroke:none"
               d="M 3.328125,-3.015625 C 3.390625,-3.265625 3.625,-4.1875 4.3125,-4.1875 c 0.046875,0 0.296875,0 0.5,0.125 C 4.53125,-4 4.34375,-3.765625 4.34375,-3.515625 c 0,0.15625 0.109375,0.34375 0.375,0.34375 0.21875,0 0.53125,-0.171875 0.53125,-0.578125 0,-0.515625 -0.578125,-0.65625 -0.921875,-0.65625 -0.578125,0 -0.921875,0.53125 -1.046875,0.75 -0.25,-0.65625 -0.78125,-0.75 -1.078125,-0.75 -1.03125,0 -1.609375,1.28125 -1.609375,1.53125 0,0.109375 0.109375,0.109375 0.125,0.109375 0.078125,0 0.109375,-0.03125 0.125,-0.109375 0.34375,-1.0625 1,-1.3125 1.34375,-1.3125 0.1875,0 0.53125,0.09375 0.53125,0.671875 0,0.3125 -0.171875,0.96875 -0.53125,2.375 -0.15625,0.609375 -0.515625,1.03125 -0.953125,1.03125 -0.0625,0 -0.28125,0 -0.5,-0.125 0.25,-0.0625 0.46875,-0.265625 0.46875,-0.546875 0,-0.265625 -0.21875,-0.34375 -0.359375,-0.34375 -0.3125,0 -0.546875,0.25 -0.546875,0.578125 0,0.453125 0.484375,0.65625 0.921875,0.65625 0.671875,0 1.03125,-0.703125 1.046875,-0.75 0.125,0.359375 0.484375,0.75 1.078125,0.75 1.03125,0 1.59375,-1.28125 1.59375,-1.53125 0,-0.109375 -0.078125,-0.109375 -0.109375,-0.109375 -0.09375,0 -0.109375,0.046875 -0.140625,0.109375 -0.328125,1.078125 -1,1.3125 -1.3125,1.3125 -0.390625,0 -0.546875,-0.3125 -0.546875,-0.65625 0,-0.21875 0.046875,-0.4375 0.15625,-0.875 z m 0,0"
               id="id-1d5b807c-90e3-4226-956d-9fc406d5dc89" />
          </symbol>
          <symbol
             overflow="visible"
             id="id-c50bfa9b-0838-4c02-8bf0-8aaf33198604">
            <path
               style="stroke:none"
               d=""
               id="id-7ceb9893-2014-40fc-b596-b184f4fd99de" />
          </symbol>
          <symbol
             overflow="visible"
             id="id-2ba61925-4f6c-4a75-a334-a999f1a9f813">
            <path
               style="stroke:none"
               d="m 2.328125,-4.4375 c 0,-0.1875 0,-0.1875 -0.203125,-0.1875 -0.453125,0.4375 -1.078125,0.4375 -1.359375,0.4375 v 0.25 c 0.15625,0 0.625,0 1,-0.1875 v 3.546875 c 0,0.234375 0,0.328125 -0.6875,0.328125 H 0.8125 V 0 c 0.125,0 0.984375,-0.03125 1.234375,-0.03125 0.21875,0 1.09375,0.03125 1.25,0.03125 V -0.25 H 3.03125 c -0.703125,0 -0.703125,-0.09375 -0.703125,-0.328125 z m 0,0"
               id="id-4bb0d6cb-9170-44a9-9676-34930e0fa374" />
          </symbol>
        </g>
      </defs>
      <g
         id="id-b22b04af-1de1-4f0a-8526-f33666696775"
         transform="translate(-149.009,-130.359)">
        <g
           style="fill:#000000;fill-opacity:1"
           id="id-1a87a3e8-d366-47b9-9ea2-8d73d4d2e3d2">
          <g
             transform="translate(148.712,134.765)"
             id="g3298">
            <path
               style="stroke:none"
               d="M 3.328125,-3.015625 C 3.390625,-3.265625 3.625,-4.1875 4.3125,-4.1875 c 0.046875,0 0.296875,0 0.5,0.125 C 4.53125,-4 4.34375,-3.765625 4.34375,-3.515625 c 0,0.15625 0.109375,0.34375 0.375,0.34375 0.21875,0 0.53125,-0.171875 0.53125,-0.578125 0,-0.515625 -0.578125,-0.65625 -0.921875,-0.65625 -0.578125,0 -0.921875,0.53125 -1.046875,0.75 -0.25,-0.65625 -0.78125,-0.75 -1.078125,-0.75 -1.03125,0 -1.609375,1.28125 -1.609375,1.53125 0,0.109375 0.109375,0.109375 0.125,0.109375 0.078125,0 0.109375,-0.03125 0.125,-0.109375 0.34375,-1.0625 1,-1.3125 1.34375,-1.3125 0.1875,0 0.53125,0.09375 0.53125,0.671875 0,0.3125 -0.171875,0.96875 -0.53125,2.375 -0.15625,0.609375 -0.515625,1.03125 -0.953125,1.03125 -0.0625,0 -0.28125,0 -0.5,-0.125 0.25,-0.0625 0.46875,-0.265625 0.46875,-0.546875 0,-0.265625 -0.21875,-0.34375 -0.359375,-0.34375 -0.3125,0 -0.546875,0.25 -0.546875,0.578125 0,0.453125 0.484375,0.65625 0.921875,0.65625 0.671875,0 1.03125,-0.703125 1.046875,-0.75 0.125,0.359375 0.484375,0.75 1.078125,0.75 1.03125,0 1.59375,-1.28125 1.59375,-1.53125 0,-0.109375 -0.078125,-0.109375 -0.109375,-0.109375 -0.09375,0 -0.109375,0.046875 -0.140625,0.109375 -0.328125,1.078125 -1,1.3125 -1.3125,1.3125 -0.390625,0 -0.546875,-0.3125 -0.546875,-0.65625 0,-0.21875 0.046875,-0.4375 0.15625,-0.875 z m 0,0"
               id="id-e4a0c865-d026-4369-b0b0-001e0b5c4d3b" />
          </g>
        </g>
        <g
           style="fill:#000000;fill-opacity:1"
           id="id-81997580-e0a2-43bc-9715-ca985b144ffb">
          <g
             transform="translate(154.406,136.259)"
             id="g3302">
            <path
               style="stroke:none"
               d="m 2.328125,-4.4375 c 0,-0.1875 0,-0.1875 -0.203125,-0.1875 -0.453125,0.4375 -1.078125,0.4375 -1.359375,0.4375 v 0.25 c 0.15625,0 0.625,0 1,-0.1875 v 3.546875 c 0,0.234375 0,0.328125 -0.6875,0.328125 H 0.8125 V 0 c 0.125,0 0.984375,-0.03125 1.234375,-0.03125 0.21875,0 1.09375,0.03125 1.25,0.03125 V -0.25 H 3.03125 c -0.703125,0 -0.703125,-0.09375 -0.703125,-0.328125 z m 0,0"
               id="id-e292e0e8-8203-46a3-aec9-f03eff975c84" />
          </g>
        </g>
      </g>
    </g>
    <g
       transform="matrix(0.457691,0,0,0.457691,36.849033,33.13262)"
       ns2:version="1.0.1"
       ns2:texconverter="pdflatex"
       ns2:pdfconverter="inkscape"
       ns2:text="$x_2$"
       ns2:preamble="/home/macaco/.config/inkscape/extensions/textext/default_packages.tex"
       ns2:scale="1.29739074514478"
       ns2:alignment="middle center"
       ns2:jacobian_sqrt="0.457691"
       id="g3488">
      <defs
         id="id-a40bf465-279f-42b5-a283-b87c963fcf9c">
        <g
           id="id-5b3fb1cc-715d-4844-ab29-b3bd95221af9">
          <symbol
             overflow="visible"
             id="id-1b74fc4c-2452-4a01-abcf-1021759ab6a9">
            <path
               style="stroke:none"
               d=""
               id="id-eb65b70c-7388-4514-830d-7b651f9793cd" />
          </symbol>
          <symbol
             overflow="visible"
             id="id-c1025ed0-6ae0-4a6f-aef6-5d894ef02f29">
            <path
               style="stroke:none"
               d="M 3.328125,-3.015625 C 3.390625,-3.265625 3.625,-4.1875 4.3125,-4.1875 c 0.046875,0 0.296875,0 0.5,0.125 C 4.53125,-4 4.34375,-3.765625 4.34375,-3.515625 c 0,0.15625 0.109375,0.34375 0.375,0.34375 0.21875,0 0.53125,-0.171875 0.53125,-0.578125 0,-0.515625 -0.578125,-0.65625 -0.921875,-0.65625 -0.578125,0 -0.921875,0.53125 -1.046875,0.75 -0.25,-0.65625 -0.78125,-0.75 -1.078125,-0.75 -1.03125,0 -1.609375,1.28125 -1.609375,1.53125 0,0.109375 0.109375,0.109375 0.125,0.109375 0.078125,0 0.109375,-0.03125 0.125,-0.109375 0.34375,-1.0625 1,-1.3125 1.34375,-1.3125 0.1875,0 0.53125,0.09375 0.53125,0.671875 0,0.3125 -0.171875,0.96875 -0.53125,2.375 -0.15625,0.609375 -0.515625,1.03125 -0.953125,1.03125 -0.0625,0 -0.28125,0 -0.5,-0.125 0.25,-0.0625 0.46875,-0.265625 0.46875,-0.546875 0,-0.265625 -0.21875,-0.34375 -0.359375,-0.34375 -0.3125,0 -0.546875,0.25 -0.546875,0.578125 0,0.453125 0.484375,0.65625 0.921875,0.65625 0.671875,0 1.03125,-0.703125 1.046875,-0.75 0.125,0.359375 0.484375,0.75 1.078125,0.75 1.03125,0 1.59375,-1.28125 1.59375,-1.53125 0,-0.109375 -0.078125,-0.109375 -0.109375,-0.109375 -0.09375,0 -0.109375,0.046875 -0.140625,0.109375 -0.328125,1.078125 -1,1.3125 -1.3125,1.3125 -0.390625,0 -0.546875,-0.3125 -0.546875,-0.65625 0,-0.21875 0.046875,-0.4375 0.15625,-0.875 z m 0,0"
               id="id-0287d2bc-c72e-4c26-b13f-eaef5bc72e9c" />
          </symbol>
          <symbol
             overflow="visible"
             id="id-16fabd91-4d2e-4233-9b0e-a55d9f4d5159">
            <path
               style="stroke:none"
               d=""
               id="id-82881600-9f2d-40f6-97e4-57ad98f32ce1" />
          </symbol>
          <symbol
             overflow="visible"
             id="id-38a5842b-1a4e-4e99-8c7a-35410000b39e">
            <path
               style="stroke:none"
               d="M 3.515625,-1.265625 H 3.28125 c -0.015625,0.15625 -0.09375,0.5625 -0.1875,0.625 C 3.046875,-0.59375 2.515625,-0.59375 2.40625,-0.59375 H 1.125 c 0.734375,-0.640625 0.984375,-0.84375 1.390625,-1.171875 0.515625,-0.40625 1,-0.84375 1,-1.5 0,-0.84375 -0.734375,-1.359375 -1.625,-1.359375 -0.859375,0 -1.453125,0.609375 -1.453125,1.25 0,0.34375 0.296875,0.390625 0.375,0.390625 0.15625,0 0.359375,-0.125 0.359375,-0.375 0,-0.125 -0.046875,-0.375 -0.40625,-0.375 C 0.984375,-4.21875 1.453125,-4.375 1.78125,-4.375 c 0.703125,0 1.0625,0.546875 1.0625,1.109375 0,0.609375 -0.4375,1.078125 -0.65625,1.328125 L 0.515625,-0.265625 C 0.4375,-0.203125 0.4375,-0.1875 0.4375,0 h 2.875 z m 0,0"
               id="id-71f224ae-edd0-4d3c-adc3-3074e850f52e" />
          </symbol>
        </g>
      </defs>
      <g
         id="id-4c493e92-2861-4553-b496-66a235839e7c"
         transform="translate(-149.009,-130.359)">
        <g
           style="fill:#000000;fill-opacity:1"
           id="id-5f240568-6e97-4f9c-85c7-f15541d35c05">
          <g
             transform="translate(148.712,134.765)"
             id="g3480">
            <path
               style="stroke:none"
               d="M 3.328125,-3.015625 C 3.390625,-3.265625 3.625,-4.1875 4.3125,-4.1875 c 0.046875,0 0.296875,0 0.5,0.125 C 4.53125,-4 4.34375,-3.765625 4.34375,-3.515625 c 0,0.15625 0.109375,0.34375 0.375,0.34375 0.21875,0 0.53125,-0.171875 0.53125,-0.578125 0,-0.515625 -0.578125,-0.65625 -0.921875,-0.65625 -0.578125,0 -0.921875,0.53125 -1.046875,0.75 -0.25,-0.65625 -0.78125,-0.75 -1.078125,-0.75 -1.03125,0 -1.609375,1.28125 -1.609375,1.53125 0,0.109375 0.109375,0.109375 0.125,0.109375 0.078125,0 0.109375,-0.03125 0.125,-0.109375 0.34375,-1.0625 1,-1.3125 1.34375,-1.3125 0.1875,0 0.53125,0.09375 0.53125,0.671875 0,0.3125 -0.171875,0.96875 -0.53125,2.375 -0.15625,0.609375 -0.515625,1.03125 -0.953125,1.03125 -0.0625,0 -0.28125,0 -0.5,-0.125 0.25,-0.0625 0.46875,-0.265625 0.46875,-0.546875 0,-0.265625 -0.21875,-0.34375 -0.359375,-0.34375 -0.3125,0 -0.546875,0.25 -0.546875,0.578125 0,0.453125 0.484375,0.65625 0.921875,0.65625 0.671875,0 1.03125,-0.703125 1.046875,-0.75 0.125,0.359375 0.484375,0.75 1.078125,0.75 1.03125,0 1.59375,-1.28125 1.59375,-1.53125 0,-0.109375 -0.078125,-0.109375 -0.109375,-0.109375 -0.09375,0 -0.109375,0.046875 -0.140625,0.109375 -0.328125,1.078125 -1,1.3125 -1.3125,1.3125 -0.390625,0 -0.546875,-0.3125 -0.546875,-0.65625 0,-0.21875 0.046875,-0.4375 0.15625,-0.875 z m 0,0"
               id="id-2505ee76-0789-42ae-86ef-56dac5f73389" />
          </g>
        </g>
        <g
           style="fill:#000000;fill-opacity:1"
           id="id-66724765-98e8-44f0-b919-bde879d96243">
          <g
             transform="translate(154.406,136.259)"
             id="g3484">
            <path
               style="stroke:none"
               d="M 3.515625,-1.265625 H 3.28125 c -0.015625,0.15625 -0.09375,0.5625 -0.1875,0.625 C 3.046875,-0.59375 2.515625,-0.59375 2.40625,-0.59375 H 1.125 c 0.734375,-0.640625 0.984375,-0.84375 1.390625,-1.171875 0.515625,-0.40625 1,-0.84375 1,-1.5 0,-0.84375 -0.734375,-1.359375 -1.625,-1.359375 -0.859375,0 -1.453125,0.609375 -1.453125,1.25 0,0.34375 0.296875,0.390625 0.375,0.390625 0.15625,0 0.359375,-0.125 0.359375,-0.375 0,-0.125 -0.046875,-0.375 -0.40625,-0.375 C 0.984375,-4.21875 1.453125,-4.375 1.78125,-4.375 c 0.703125,0 1.0625,0.546875 1.0625,1.109375 0,0.609375 -0.4375,1.078125 -0.65625,1.328125 L 0.515625,-0.265625 C 0.4375,-0.203125 0.4375,-0.1875 0.4375,0 h 2.875 z m 0,0"
               id="id-2ad444d8-740b-4a4e-97c2-b640c5d6943f" />
          </g>
        </g>
      </g>
    </g>
    <g
       transform="matrix(0.457691,0,0,0.457691,113.15484,71.40589)"
       ns2:version="1.0.1"
       ns2:texconverter="pdflatex"
       ns2:pdfconverter="inkscape"
       ns2:text="$h$"
       ns2:preamble="/home/macaco/.config/inkscape/extensions/textext/default_packages.tex"
       ns2:scale="1.29739074514478"
       ns2:alignment="middle center"
       ns2:jacobian_sqrt="0.457691"
       id="g3689">
      <defs
         id="id-6f459307-439c-4213-96d5-7475fca0e3f8">
        <g
           id="id-76fb4ae2-6e34-4034-86d4-9d2529a01bec">
          <symbol
             overflow="visible"
             id="id-84ce8e62-9bfc-432c-88ce-49a8a1f2d958">
            <path
               style="stroke:none"
               d=""
               id="id-9a6769f0-c45b-42bd-9452-ac3509f29af6" />
          </symbol>
          <symbol
             overflow="visible"
             id="id-3a3a4c06-9f16-4063-9c0b-62409697883f">
            <path
               style="stroke:none"
               d="m 2.859375,-6.8125 c 0,0 0,-0.109375 -0.125,-0.109375 -0.234375,0 -0.953125,0.078125 -1.21875,0.109375 -0.078125,0 -0.1875,0.015625 -0.1875,0.1875 0,0.125 0.09375,0.125 0.234375,0.125 0.484375,0 0.5,0.0625 0.5,0.171875 L 2.03125,-6.125 0.59375,-0.390625 c -0.046875,0.140625 -0.046875,0.15625 -0.046875,0.21875 0,0.234375 0.203125,0.28125 0.296875,0.28125 0.15625,0 0.3125,-0.125 0.359375,-0.265625 l 0.1875,-0.75 0.21875,-0.890625 C 1.671875,-2.03125 1.734375,-2.25 1.78125,-2.46875 1.796875,-2.53125 1.890625,-2.859375 1.890625,-2.921875 1.921875,-3.015625 2.234375,-3.5625 2.578125,-3.84375 2.796875,-4 3.09375,-4.1875 3.53125,-4.1875 c 0.421875,0 0.53125,0.34375 0.53125,0.703125 0,0.53125 -0.375,1.625 -0.609375,2.234375 C 3.375,-1.03125 3.3125,-0.90625 3.3125,-0.703125 c 0,0.46875 0.359375,0.8125 0.828125,0.8125 0.9375,0 1.296875,-1.453125 1.296875,-1.53125 0,-0.109375 -0.078125,-0.109375 -0.109375,-0.109375 -0.109375,0 -0.109375,0.03125 -0.15625,0.1875 -0.140625,0.53125 -0.46875,1.234375 -1.015625,1.234375 -0.171875,0 -0.234375,-0.09375 -0.234375,-0.328125 0,-0.25 0.078125,-0.484375 0.171875,-0.703125 0.15625,-0.4375 0.609375,-1.625 0.609375,-2.203125 0,-0.640625 -0.390625,-1.0625 -1.140625,-1.0625 -0.625,0 -1.109375,0.3125 -1.484375,0.765625 z m 0,0"
               id="id-630a105b-f238-48da-87ef-e11df15b4aae" />
          </symbol>
        </g>
      </defs>
      <g
         id="id-4863b91c-eada-4f83-add5-6fbd77a81e47"
         transform="translate(-149.259,-127.843)">
        <g
           style="fill:#000000;fill-opacity:1"
           id="id-d8dcdb40-b121-4638-80df-55152666e439">
          <g
             transform="translate(148.712,134.765)"
             id="g3685">
            <path
               style="stroke:none"
               d="m 2.859375,-6.8125 c 0,0 0,-0.109375 -0.125,-0.109375 -0.234375,0 -0.953125,0.078125 -1.21875,0.109375 -0.078125,0 -0.1875,0.015625 -0.1875,0.1875 0,0.125 0.09375,0.125 0.234375,0.125 0.484375,0 0.5,0.0625 0.5,0.171875 L 2.03125,-6.125 0.59375,-0.390625 c -0.046875,0.140625 -0.046875,0.15625 -0.046875,0.21875 0,0.234375 0.203125,0.28125 0.296875,0.28125 0.15625,0 0.3125,-0.125 0.359375,-0.265625 l 0.1875,-0.75 0.21875,-0.890625 C 1.671875,-2.03125 1.734375,-2.25 1.78125,-2.46875 1.796875,-2.53125 1.890625,-2.859375 1.890625,-2.921875 1.921875,-3.015625 2.234375,-3.5625 2.578125,-3.84375 2.796875,-4 3.09375,-4.1875 3.53125,-4.1875 c 0.421875,0 0.53125,0.34375 0.53125,0.703125 0,0.53125 -0.375,1.625 -0.609375,2.234375 C 3.375,-1.03125 3.3125,-0.90625 3.3125,-0.703125 c 0,0.46875 0.359375,0.8125 0.828125,0.8125 0.9375,0 1.296875,-1.453125 1.296875,-1.53125 0,-0.109375 -0.078125,-0.109375 -0.109375,-0.109375 -0.109375,0 -0.109375,0.03125 -0.15625,0.1875 -0.140625,0.53125 -0.46875,1.234375 -1.015625,1.234375 -0.171875,0 -0.234375,-0.09375 -0.234375,-0.328125 0,-0.25 0.078125,-0.484375 0.171875,-0.703125 0.15625,-0.4375 0.609375,-1.625 0.609375,-2.203125 0,-0.640625 -0.390625,-1.0625 -1.140625,-1.0625 -0.625,0 -1.109375,0.3125 -1.484375,0.765625 z m 0,0"
               id="id-1285bc1b-3319-434f-93f5-b67a3557b19c" />
          </g>
        </g>
      </g>
    </g>
    <path
       d="m 38.641093,37.66196 c 0,74.53801 0,74.53801 0,74.53801"
       style="fill:none;stroke:#000000;stroke-width:0.452933;stroke-linecap:butt;stroke-linejoin:miter;stroke-miterlimit:10;stroke-dasharray:none;stroke-opacity:1"
       id="path40" />
    <path
       d="m 38.641093,39.47368 0.90587,0.90588 -0.90587,-3.17053 -0.90588,3.17053 0.90588,-0.90588"
       style="fill:#000000;fill-opacity:1;fill-rule:evenodd;stroke:none;stroke-width:0.0566167"
       id="path42" />
    <path
       d="m 38.641093,39.47368 0.90587,0.90588 -0.90587,-3.17053 -0.90588,3.17053 z"
       style="fill:none;stroke:#000000;stroke-width:0.226467;stroke-linecap:butt;stroke-linejoin:miter;stroke-miterlimit:10;stroke-dasharray:none;stroke-opacity:1"
       id="path44" />
    <path
       d="m 33.707473,108.59973 c 116.940597,0 116.940597,0 116.940597,0"
       style="fill:none;stroke:#000000;stroke-width:0.452933;stroke-linecap:butt;stroke-linejoin:miter;stroke-miterlimit:10;stroke-dasharray:none;stroke-opacity:1"
       id="path46" />
    <path
       d="m 148.83634,108.59973 -0.90587,0.90586 3.17054,-0.90586 -3.17054,-0.90586 0.90587,0.90586"
       style="fill:#000000;fill-opacity:1;fill-rule:evenodd;stroke:none;stroke-width:0.0566167"
       id="path48" />
    <path
       d="m 148.83634,108.59973 -0.90587,0.90586 3.17054,-0.90586 -3.17054,-0.90586 z"
       style="fill:none;stroke:#000000;stroke-width:0.226467;stroke-linecap:butt;stroke-linejoin:miter;stroke-miterlimit:10;stroke-dasharray:none;stroke-opacity:1"
       id="path50" />
    <path
       d="m 63.575882,45.86231 c 0,0.47898 -0.388165,0.86681 -0.866746,0.86681 -0.478354,0 -0.866687,-0.38783 -0.866687,-0.86681 0,-0.4784 0.388333,-0.8668 0.866687,-0.8668 0.478581,0 0.866746,0.3884 0.866746,0.8668"
       style="fill:#000000;fill-opacity:1;fill-rule:nonzero;stroke:none;stroke-width:0.0566167"
       id="path52" />
    <path
       d="m 63.575882,45.86231 c 0,0.47898 -0.388165,0.86681 -0.866746,0.86681 -0.478354,0 -0.866687,-0.38783 -0.866687,-0.86681 0,-0.4784 0.388333,-0.8668 0.866687,-0.8668 0.478581,0 0.866746,0.3884 0.866746,0.8668 z"
       style="fill:none;stroke:#000000;stroke-width:0.452933;stroke-linecap:butt;stroke-linejoin:miter;stroke-miterlimit:10;stroke-dasharray:none;stroke-opacity:1"
       id="path54" />
    <path
       d="m 71.776409,43.39553 c 0,0.47897 -0.388333,0.86679 -0.866688,0.86679 -0.478354,0 -0.866744,-0.38782 -0.866744,-0.86679 0,-0.47841 0.38839,-0.86681 0.866744,-0.86681 0.478355,0 0.866688,0.3884 0.866688,0.86681"
       style="fill:#000000;fill-opacity:1;fill-rule:nonzero;stroke:none;stroke-width:0.0566167"
       id="path56" />
    <path
       d="m 71.776409,43.39553 c 0,0.47897 -0.388333,0.86679 -0.866688,0.86679 -0.478354,0 -0.866744,-0.38782 -0.866744,-0.86679 0,-0.47841 0.38839,-0.86681 0.866744,-0.86681 0.478355,0 0.866688,0.3884 0.866688,0.86681 z"
       style="fill:none;stroke:#000000;stroke-width:0.452933;stroke-linecap:butt;stroke-linejoin:miter;stroke-miterlimit:10;stroke-dasharray:none;stroke-opacity:1"
       id="path58" />
    <path
       d="m 66.842832,57.12988 c 0,0.47858 -0.38839,0.86668 -0.866743,0.86668 -0.478355,0 -0.866688,-0.3881 -0.866688,-0.86668 0,-0.47836 0.388333,-0.86674 0.866688,-0.86674 0.478353,0 0.866743,0.38838 0.866743,0.86674"
       style="fill:#000000;fill-opacity:1;fill-rule:nonzero;stroke:none;stroke-width:0.0566167"
       id="path60" />
    <path
       d="m 66.842832,57.12988 c 0,0.47858 -0.38839,0.86668 -0.866743,0.86668 -0.478355,0 -0.866688,-0.3881 -0.866688,-0.86668 0,-0.47836 0.388333,-0.86674 0.866688,-0.86674 0.478353,0 0.866743,0.38838 0.866743,0.86674 z"
       style="fill:none;stroke:#000000;stroke-width:0.452933;stroke-linecap:butt;stroke-linejoin:miter;stroke-miterlimit:10;stroke-dasharray:none;stroke-opacity:1"
       id="path62" />
    <path
       d="m 77.510207,55.79628 c 0,0.47858 -0.388391,0.86697 -0.866745,0.86697 -0.478581,0 -0.866689,-0.38839 -0.866689,-0.86697 0,-0.47842 0.388108,-0.86624 0.866689,-0.86624 0.478354,0 0.866745,0.38782 0.866745,0.86624"
       style="fill:#000000;fill-opacity:1;fill-rule:nonzero;stroke:none;stroke-width:0.0566167"
       id="path64" />
    <path
       d="m 77.510207,55.79628 c 0,0.47858 -0.388391,0.86697 -0.866745,0.86697 -0.478581,0 -0.866689,-0.38839 -0.866689,-0.86697 0,-0.47842 0.388108,-0.86624 0.866689,-0.86624 0.478354,0 0.866745,0.38782 0.866745,0.86624 z"
       style="fill:none;stroke:#000000;stroke-width:0.452933;stroke-linecap:butt;stroke-linejoin:miter;stroke-miterlimit:10;stroke-dasharray:none;stroke-opacity:1"
       id="path66" />
    <path
       d="m 75.910106,46.06274 c 0,0.47841 -0.388335,0.86679 -0.866688,0.86679 -0.478637,0 -0.866745,-0.38838 -0.866745,-0.86679 0,-0.47842 0.388108,-0.86681 0.866745,-0.86681 0.478353,0 0.866688,0.38839 0.866688,0.86681"
       style="fill:#000000;fill-opacity:1;fill-rule:nonzero;stroke:none;stroke-width:0.0566167"
       id="path68" />
    <path
       d="m 75.910106,46.06274 c 0,0.47841 -0.388335,0.86679 -0.866688,0.86679 -0.478637,0 -0.866745,-0.38838 -0.866745,-0.86679 0,-0.47842 0.388108,-0.86681 0.866745,-0.86681 0.478353,0 0.866688,0.38839 0.866688,0.86681 z"
       style="fill:none;stroke:#000000;stroke-width:0.452933;stroke-linecap:butt;stroke-linejoin:miter;stroke-miterlimit:10;stroke-dasharray:none;stroke-opacity:1"
       id="path70" />
    <path
       d="m 73.509899,51.79631 c 0,0.47842 -0.38839,0.8668 -0.866745,0.8668 -0.478355,0 -0.866745,-0.38838 -0.866745,-0.8668 0,-0.47841 0.38839,-0.86681 0.866745,-0.86681 0.478355,0 0.866745,0.3884 0.866745,0.86681"
       style="fill:#000000;fill-opacity:1;fill-rule:nonzero;stroke:none;stroke-width:0.0566167"
       id="path72" />
    <path
       d="m 73.509899,51.79631 c 0,0.47842 -0.38839,0.8668 -0.866745,0.8668 -0.478355,0 -0.866745,-0.38838 -0.866745,-0.8668 0,-0.47841 0.38839,-0.86681 0.866745,-0.86681 0.478355,0 0.866745,0.3884 0.866745,0.86681 z"
       style="fill:none;stroke:#000000;stroke-width:0.452933;stroke-linecap:butt;stroke-linejoin:miter;stroke-miterlimit:10;stroke-dasharray:none;stroke-opacity:1"
       id="path74" />
    <path
       d="m 63.909354,50.99631 c 0,0.47841 -0.388335,0.86681 -0.866688,0.86681 -0.478582,0 -0.866745,-0.3884 -0.866745,-0.86681 0,-0.4784 0.388163,-0.8668 0.866745,-0.8668 0.478353,0 0.866688,0.3884 0.866688,0.8668"
       style="fill:#000000;fill-opacity:1;fill-rule:nonzero;stroke:none;stroke-width:0.0566167"
       id="path76" />
    <path
       d="m 63.909354,50.99631 c 0,0.47841 -0.388335,0.86681 -0.866688,0.86681 -0.478582,0 -0.866745,-0.3884 -0.866745,-0.86681 0,-0.4784 0.388163,-0.8668 0.866745,-0.8668 0.478353,0 0.866688,0.3884 0.866688,0.8668 z"
       style="fill:none;stroke:#000000;stroke-width:0.452933;stroke-linecap:butt;stroke-linejoin:miter;stroke-miterlimit:10;stroke-dasharray:none;stroke-opacity:1"
       id="path78" />
    <path
       d="m 68.709598,49.52937 c 0,0.47841 -0.388333,0.86681 -0.866688,0.86681 -0.478355,0 -0.866745,-0.3884 -0.866745,-0.86681 0,-0.4784 0.38839,-0.8668 0.866745,-0.8668 0.478355,0 0.866688,0.3884 0.866688,0.8668"
       style="fill:#000000;fill-opacity:1;fill-rule:nonzero;stroke:none;stroke-width:0.0566167"
       id="path80" />
    <path
       d="m 68.709598,49.52937 c 0,0.47841 -0.388333,0.86681 -0.866688,0.86681 -0.478355,0 -0.866745,-0.3884 -0.866745,-0.86681 0,-0.4784 0.38839,-0.8668 0.866745,-0.8668 0.478355,0 0.866688,0.3884 0.866688,0.8668 z"
       style="fill:none;stroke:#000000;stroke-width:0.452933;stroke-linecap:butt;stroke-linejoin:miter;stroke-miterlimit:10;stroke-dasharray:none;stroke-opacity:1"
       id="path82" />
    <path
       d="m 81.510286,48.3291 c 0,0.47898 -0.388107,0.86681 -0.866687,0.86681 -0.478411,0 -0.866745,-0.38783 -0.866745,-0.86681 0,-0.47842 0.388334,-0.8668 0.866745,-0.8668 0.47858,0 0.866687,0.38838 0.866687,0.8668"
       style="fill:#000000;fill-opacity:1;fill-rule:nonzero;stroke:none;stroke-width:0.0566167"
       id="path84" />
    <path
       d="m 81.510286,48.3291 c 0,0.47898 -0.388107,0.86681 -0.866687,0.86681 -0.478411,0 -0.866745,-0.38783 -0.866745,-0.86681 0,-0.47842 0.388334,-0.8668 0.866745,-0.8668 0.47858,0 0.866687,0.38838 0.866687,0.8668 z"
       style="fill:none;stroke:#000000;stroke-width:0.452933;stroke-linecap:butt;stroke-linejoin:miter;stroke-miterlimit:10;stroke-dasharray:none;stroke-opacity:1"
       id="path86" />
    <path
       d="m 111.77903,41.79554 c 0,0.4784 -0.38839,0.86681 -0.8668,0.86681 -0.47841,0 -0.8668,-0.38841 -0.8668,-0.86681 0,-0.47842 0.38839,-0.8668 0.8668,-0.8668 0.47841,0 0.8668,0.38838 0.8668,0.8668"
       style="fill:#000000;fill-opacity:1;fill-rule:nonzero;stroke:none;stroke-width:0.0566167"
       id="path88" />
    <path
       d="m 111.77903,41.79554 c 0,0.4784 -0.38839,0.86681 -0.8668,0.86681 -0.47841,0 -0.8668,-0.38841 -0.8668,-0.86681 0,-0.47842 0.38839,-0.8668 0.8668,-0.8668 0.47841,0 0.8668,0.38838 0.8668,0.8668 z"
       style="fill:none;stroke:#000000;stroke-width:0.452933;stroke-linecap:butt;stroke-linejoin:miter;stroke-miterlimit:10;stroke-dasharray:none;stroke-opacity:1"
       id="path90" />
    <path
       d="m 129.24641,46.46245 c 0,0.47841 -0.38839,0.86679 -0.86681,0.86679 -0.47841,0 -0.86623,-0.38838 -0.86623,-0.86679 0,-0.47842 0.38782,-0.86623 0.86623,-0.86623 0.47842,0 0.86681,0.38781 0.86681,0.86623"
       style="fill:#000000;fill-opacity:1;fill-rule:nonzero;stroke:none;stroke-width:0.0566167"
       id="path92" />
    <path
       d="m 129.24641,46.46245 c 0,0.47841 -0.38839,0.86679 -0.86681,0.86679 -0.47841,0 -0.86623,-0.38838 -0.86623,-0.86679 0,-0.47842 0.38782,-0.86623 0.86623,-0.86623 0.47842,0 0.86681,0.38781 0.86681,0.86623 z"
       style="fill:none;stroke:#000000;stroke-width:0.452933;stroke-linecap:butt;stroke-linejoin:miter;stroke-miterlimit:10;stroke-dasharray:none;stroke-opacity:1"
       id="path94" />
    <path
       d="m 137.64719,59.13003 c 0,0.47837 -0.38839,0.86675 -0.8668,0.86675 -0.47842,0 -0.86681,-0.38838 -0.86681,-0.86675 0,-0.47835 0.38839,-0.86675 0.86681,-0.86675 0.47841,0 0.8668,0.3884 0.8668,0.86675"
       style="fill:#000000;fill-opacity:1;fill-rule:nonzero;stroke:none;stroke-width:0.0566167"
       id="path96" />
    <path
       d="m 137.64719,59.13003 c 0,0.47837 -0.38839,0.86675 -0.8668,0.86675 -0.47842,0 -0.86681,-0.38838 -0.86681,-0.86675 0,-0.47835 0.38839,-0.86675 0.86681,-0.86675 0.47841,0 0.8668,0.3884 0.8668,0.86675 z"
       style="fill:none;stroke:#000000;stroke-width:0.452933;stroke-linecap:butt;stroke-linejoin:miter;stroke-miterlimit:10;stroke-dasharray:none;stroke-opacity:1"
       id="path98" />
    <path
       d="m 74.709889,64.3304 c 0,0.47834 -0.388165,0.86667 -0.866745,0.86667 -0.478353,0 -0.866688,-0.38833 -0.866688,-0.86667 0,-0.47842 0.388335,-0.86675 0.866688,-0.86675 0.47858,0 0.866745,0.38833 0.866745,0.86675"
       style="fill:#000000;fill-opacity:1;fill-rule:nonzero;stroke:none;stroke-width:0.0566167"
       id="path100" />
    <path
       d="m 74.709889,64.3304 c 0,0.47834 -0.388165,0.86667 -0.866745,0.86667 -0.478353,0 -0.866688,-0.38833 -0.866688,-0.86667 0,-0.47842 0.388335,-0.86675 0.866688,-0.86675 0.47858,0 0.866745,0.38833 0.866745,0.86675 z"
       style="fill:none;stroke:#000000;stroke-width:0.452933;stroke-linecap:butt;stroke-linejoin:miter;stroke-miterlimit:10;stroke-dasharray:none;stroke-opacity:1"
       id="path102" />
    <path
       d="m 105.51157,85.1317 c 0,0.47834 -0.38839,0.86668 -0.86624,0.86668 -0.47841,0 -0.8668,-0.38834 -0.8668,-0.86668 0,-0.47858 0.38839,-0.86675 0.8668,-0.86675 0.47785,0 0.86624,0.38817 0.86624,0.86675"
       style="fill:#000000;fill-opacity:1;fill-rule:nonzero;stroke:none;stroke-width:0.0566167"
       id="path104" />
    <path
       d="m 105.51157,85.1317 c 0,0.47834 -0.38839,0.86668 -0.86624,0.86668 -0.47841,0 -0.8668,-0.38834 -0.8668,-0.86668 0,-0.47858 0.38839,-0.86675 0.8668,-0.86675 0.47785,0 0.86624,0.38817 0.86624,0.86675 z"
       style="fill:none;stroke:#000000;stroke-width:0.452933;stroke-linecap:butt;stroke-linejoin:miter;stroke-miterlimit:10;stroke-dasharray:none;stroke-opacity:1"
       id="path106" />
    <path
       d="m 116.71261,77.79785 c 0,0.47836 -0.38839,0.86669 -0.8668,0.86669 -0.47841,0 -0.86681,-0.38833 -0.86681,-0.86669 0,-0.47841 0.3884,-0.86675 0.86681,-0.86675 0.47841,0 0.8668,0.38834 0.8668,0.86675"
       style="fill:#000000;fill-opacity:1;fill-rule:nonzero;stroke:none;stroke-width:0.0566167"
       id="path108" />
    <path
       d="m 116.71261,77.79785 c 0,0.47836 -0.38839,0.86669 -0.8668,0.86669 -0.47841,0 -0.86681,-0.38833 -0.86681,-0.86669 0,-0.47841 0.3884,-0.86675 0.86681,-0.86675 0.47841,0 0.8668,0.38834 0.8668,0.86675 z"
       style="fill:none;stroke:#000000;stroke-width:0.452933;stroke-linecap:butt;stroke-linejoin:miter;stroke-miterlimit:10;stroke-dasharray:none;stroke-opacity:1"
       id="path110" />
    <path
       d="m 124.44644,87.39835 c 0,0.47857 -0.38839,0.86674 -0.8668,0.86674 -0.47841,0 -0.8668,-0.38817 -0.8668,-0.86674 0,-0.47837 0.38839,-0.86675 0.8668,-0.86675 0.47841,0 0.8668,0.38838 0.8668,0.86675"
       style="fill:#000000;fill-opacity:1;fill-rule:nonzero;stroke:none;stroke-width:0.0566167"
       id="path112" />
    <path
       d="m 124.44644,87.39835 c 0,0.47857 -0.38839,0.86674 -0.8668,0.86674 -0.47841,0 -0.8668,-0.38817 -0.8668,-0.86674 0,-0.47837 0.38839,-0.86675 0.8668,-0.86675 0.47841,0 0.8668,0.38838 0.8668,0.86675 z"
       style="fill:none;stroke:#000000;stroke-width:0.452933;stroke-linecap:butt;stroke-linejoin:miter;stroke-miterlimit:10;stroke-dasharray:none;stroke-opacity:1"
       id="path114" />
    <path
       d="m 120.57953,92.33198 c 0,0.47858 -0.38839,0.86668 -0.86681,0.86668 -0.47841,0 -0.8668,-0.3881 -0.8668,-0.86668 0,-0.47842 0.38839,-0.86675 0.8668,-0.86675 0.47842,0 0.86681,0.38833 0.86681,0.86675"
       style="fill:#000000;fill-opacity:1;fill-rule:nonzero;stroke:none;stroke-width:0.0566167"
       id="path116" />
    <path
       d="m 120.57953,92.33198 c 0,0.47858 -0.38839,0.86668 -0.86681,0.86668 -0.47841,0 -0.8668,-0.3881 -0.8668,-0.86668 0,-0.47842 0.38839,-0.86675 0.8668,-0.86675 0.47842,0 0.86681,0.38833 0.86681,0.86675 z"
       style="fill:none;stroke:#000000;stroke-width:0.452933;stroke-linecap:butt;stroke-linejoin:miter;stroke-miterlimit:10;stroke-dasharray:none;stroke-opacity:1"
       id="path118" />
    <path
       d="m 98.578287,91.79875 c 0,0.47837 -0.38839,0.8667 -0.866801,0.8667 -0.478411,0 -0.866801,-0.38833 -0.866801,-0.8667 0,-0.47864 0.38839,-0.86674 0.866801,-0.86674 0.478411,0 0.866801,0.3881 0.866801,0.86674"
       style="fill:#000000;fill-opacity:1;fill-rule:nonzero;stroke:none;stroke-width:0.0566167"
       id="path120" />
    <path
       d="m 98.578287,91.79875 c 0,0.47837 -0.38839,0.8667 -0.866801,0.8667 -0.478411,0 -0.866801,-0.38833 -0.866801,-0.8667 0,-0.47864 0.38839,-0.86674 0.866801,-0.86674 0.478411,0 0.866801,0.3881 0.866801,0.86674 z"
       style="fill:none;stroke:#000000;stroke-width:0.452933;stroke-linecap:butt;stroke-linejoin:miter;stroke-miterlimit:10;stroke-dasharray:none;stroke-opacity:1"
       id="path122" />
    <path
       d="m 102.33537,94.77531 h 23.55406 V 76.02128 h -23.55406 z"
       style="fill:none;stroke:#000000;stroke-width:0.366808;stroke-linecap:butt;stroke-linejoin:miter;stroke-miterlimit:10;stroke-dasharray:none;stroke-opacity:1"
       id="path124" />
    <path
       d="m 135.98039,39.52918 c -0.66694,5.59994 -5.73357,6.00022 -5.73357,6.00022"
       style="fill:none;stroke:#000000;stroke-width:0.452933;stroke-linecap:butt;stroke-linejoin:miter;stroke-miterlimit:10;stroke-dasharray:0.452933, 0.905869;stroke-dashoffset:0;stroke-opacity:1"
       id="path166" />
    <path
       d="m 132.05289,45.38674 0.8317,-0.97438 -3.08957,1.15271 3.23225,0.65337 -0.97438,-0.8317"
       style="fill:#000000;fill-opacity:1;fill-rule:evenodd;stroke:none;stroke-width:0.0566167"
       id="path168" />
    <path
       d="m 132.05289,45.38674 0.8317,-0.97438 -3.08957,1.15271 3.23225,0.65337 z"
       style="fill:none;stroke:#000000;stroke-width:0.226467;stroke-linecap:butt;stroke-linejoin:miter;stroke-miterlimit:10;stroke-dasharray:none;stroke-opacity:1"
       id="path170" />
    <path
       d="m 135.71373,77.66446 c -10.66715,0.4001 -20.2682,7.33385 -20.2682,7.33385"
       style="fill:none;stroke:#000000;stroke-width:0.452933;stroke-linecap:butt;stroke-linejoin:miter;stroke-miterlimit:10;stroke-dasharray:0.452933, 0.905869;stroke-dashoffset:0;stroke-opacity:1"
       id="path172" />
    <path
       d="m 116.91473,83.93741 0.20382,-1.26459 -2.0399,2.59068 3.10089,-1.12197 -1.26481,-0.20412"
       style="fill:#000000;fill-opacity:1;fill-rule:evenodd;stroke:none;stroke-width:0.0566167"
       id="path174" />
    <path
       d="m 116.91473,83.93741 0.20382,-1.26459 -2.0399,2.59068 3.10089,-1.12197 z"
       style="fill:none;stroke:#000000;stroke-width:0.226467;stroke-linecap:butt;stroke-linejoin:miter;stroke-miterlimit:10;stroke-dasharray:none;stroke-opacity:1"
       id="path176" />
    <path
       d="m 115.72861,83.66453 -1.25406,1.68739 1.31917,1.78038 h -0.67204 l -1.00948,-1.36237 -1.00891,1.36237 h -0.67203 l 1.34691,-1.81439 -1.23255,-1.65338 h 0.67204 l 0.91946,1.23538 0.91945,-1.23538 h 0.67204"
       style="fill:#000000;fill-opacity:1;fill-rule:nonzero;stroke:none;stroke-width:0.0566167"
       id="path178" />
    <g
       transform="matrix(0.457691,0,0,0.457691,169.17506,79.113114)"
       ns2:version="1.0.1"
       ns2:texconverter="pdflatex"
       ns2:pdfconverter="inkscape"
       ns2:text="$\\underline{x}$"
       ns2:preamble="/home/macaco/.config/inkscape/extensions/textext/default_packages.tex"
       ns2:scale="1.29739074514478"
       ns2:alignment="middle center"
       ns2:inkscapeversion="1.0.2"
       ns2:jacobian_sqrt="0.457691"
       id="g1200">
      <defs
         id="id-9cc7e509-dbef-402d-b368-d54ea2c24408">
        <g
           id="id-67c95d40-72c0-428d-957d-622556521040">
          <symbol
             overflow="visible"
             id="id-831e3f27-2631-4d61-85fe-936745e70d70">
            <path
               style="stroke:none"
               d=""
               id="id-0d473f45-f07a-4c08-9e79-5ddbde9ae03d" />
          </symbol>
          <symbol
             overflow="visible"
             id="id-0d489e2c-6705-4cc7-b04e-3e50b84b3a61">
            <path
               style="stroke:none"
               d="M 3.328125,-3.015625 C 3.390625,-3.265625 3.625,-4.1875 4.3125,-4.1875 c 0.046875,0 0.296875,0 0.5,0.125 C 4.53125,-4 4.34375,-3.765625 4.34375,-3.515625 c 0,0.15625 0.109375,0.34375 0.375,0.34375 0.21875,0 0.53125,-0.171875 0.53125,-0.578125 0,-0.515625 -0.578125,-0.65625 -0.921875,-0.65625 -0.578125,0 -0.921875,0.53125 -1.046875,0.75 -0.25,-0.65625 -0.78125,-0.75 -1.078125,-0.75 -1.03125,0 -1.609375,1.28125 -1.609375,1.53125 0,0.109375 0.109375,0.109375 0.125,0.109375 0.078125,0 0.109375,-0.03125 0.125,-0.109375 0.34375,-1.0625 1,-1.3125 1.34375,-1.3125 0.1875,0 0.53125,0.09375 0.53125,0.671875 0,0.3125 -0.171875,0.96875 -0.53125,2.375 -0.15625,0.609375 -0.515625,1.03125 -0.953125,1.03125 -0.0625,0 -0.28125,0 -0.5,-0.125 0.25,-0.0625 0.46875,-0.265625 0.46875,-0.546875 0,-0.265625 -0.21875,-0.34375 -0.359375,-0.34375 -0.3125,0 -0.546875,0.25 -0.546875,0.578125 0,0.453125 0.484375,0.65625 0.921875,0.65625 0.671875,0 1.03125,-0.703125 1.046875,-0.75 0.125,0.359375 0.484375,0.75 1.078125,0.75 1.03125,0 1.59375,-1.28125 1.59375,-1.53125 0,-0.109375 -0.078125,-0.109375 -0.109375,-0.109375 -0.09375,0 -0.109375,0.046875 -0.140625,0.109375 -0.328125,1.078125 -1,1.3125 -1.3125,1.3125 -0.390625,0 -0.546875,-0.3125 -0.546875,-0.65625 0,-0.21875 0.046875,-0.4375 0.15625,-0.875 z m 0,0"
               id="id-070f3fc7-7cdb-4cd1-a75b-6e0a1f18944d" />
          </symbol>
        </g>
      </defs>
      <g
         id="id-932e5066-62a1-4800-bfc9-c23597918cbf"
         transform="translate(-148.711,-130.359)">
        <g
           style="fill:#000000;fill-opacity:1"
           id="id-d1499321-fc0a-4e13-a5f4-33fed64d0447">
          <g
             transform="translate(148.712,134.765)"
             id="g1195">
            <path
               style="stroke:none"
               d="M 3.328125,-3.015625 C 3.390625,-3.265625 3.625,-4.1875 4.3125,-4.1875 c 0.046875,0 0.296875,0 0.5,0.125 C 4.53125,-4 4.34375,-3.765625 4.34375,-3.515625 c 0,0.15625 0.109375,0.34375 0.375,0.34375 0.21875,0 0.53125,-0.171875 0.53125,-0.578125 0,-0.515625 -0.578125,-0.65625 -0.921875,-0.65625 -0.578125,0 -0.921875,0.53125 -1.046875,0.75 -0.25,-0.65625 -0.78125,-0.75 -1.078125,-0.75 -1.03125,0 -1.609375,1.28125 -1.609375,1.53125 0,0.109375 0.109375,0.109375 0.125,0.109375 0.078125,0 0.109375,-0.03125 0.125,-0.109375 0.34375,-1.0625 1,-1.3125 1.34375,-1.3125 0.1875,0 0.53125,0.09375 0.53125,0.671875 0,0.3125 -0.171875,0.96875 -0.53125,2.375 -0.15625,0.609375 -0.515625,1.03125 -0.953125,1.03125 -0.0625,0 -0.28125,0 -0.5,-0.125 0.25,-0.0625 0.46875,-0.265625 0.46875,-0.546875 0,-0.265625 -0.21875,-0.34375 -0.359375,-0.34375 -0.3125,0 -0.546875,0.25 -0.546875,0.578125 0,0.453125 0.484375,0.65625 0.921875,0.65625 0.671875,0 1.03125,-0.703125 1.046875,-0.75 0.125,0.359375 0.484375,0.75 1.078125,0.75 1.03125,0 1.59375,-1.28125 1.59375,-1.53125 0,-0.109375 -0.078125,-0.109375 -0.109375,-0.109375 -0.09375,0 -0.109375,0.046875 -0.140625,0.109375 -0.328125,1.078125 -1,1.3125 -1.3125,1.3125 -0.390625,0 -0.546875,-0.3125 -0.546875,-0.65625 0,-0.21875 0.046875,-0.4375 0.15625,-0.875 z m 0,0"
               id="id-b3134fb1-345a-4a78-93ce-28df72444781" />
          </g>
        </g>
        <path
           style="fill:none;stroke:#000000;stroke-width:0.398;stroke-linecap:butt;stroke-linejoin:miter;stroke-miterlimit:10;stroke-opacity:1"
           d="M -0.0010625,-0.00115625 H 5.69425"
           transform="matrix(1,0,0,-1,148.712,136.159)"
           id="id-9ada266c-e493-4ca1-b941-991f7adcaf07" />
      </g>
    </g>
  </g>
</svg>
